<mxfile host="app.diagrams.net" modified="2024-04-23T15:42:07.498Z" agent="Mozilla/5.0 (Windows NT 10.0; Win64; x64) AppleWebKit/537.36 (KHTML, like Gecko) Chrome/124.0.0.0 Safari/537.36" etag="sXNb-XSYjk25NlMZJ_JB" version="24.1.0" type="device">
  <diagram id="C5RBs43oDa-KdzZeNtuy" name="Page-1">
    <mxGraphModel dx="1646" dy="1595" grid="1" gridSize="10" guides="1" tooltips="1" connect="1" arrows="1" fold="1" page="1" pageScale="1" pageWidth="827" pageHeight="1169" math="0" shadow="0">
      <root>
        <mxCell id="WIyWlLk6GJQsqaUBKTNV-0" />
        <mxCell id="WIyWlLk6GJQsqaUBKTNV-1" parent="WIyWlLk6GJQsqaUBKTNV-0" />
        <mxCell id="WIyWlLk6GJQsqaUBKTNV-2" value="" style="rounded=0;html=1;jettySize=auto;orthogonalLoop=1;fontSize=11;endArrow=classic;endFill=1;endSize=8;strokeWidth=1;shadow=0;labelBackgroundColor=none;edgeStyle=orthogonalEdgeStyle;exitX=0.25;exitY=1;exitDx=0;exitDy=0;" parent="WIyWlLk6GJQsqaUBKTNV-1" source="WIyWlLk6GJQsqaUBKTNV-3" target="WIyWlLk6GJQsqaUBKTNV-6" edge="1">
          <mxGeometry relative="1" as="geometry" />
        </mxCell>
        <mxCell id="3OBKh0TtiSCoRNwfFAYE-8" style="edgeStyle=orthogonalEdgeStyle;rounded=0;orthogonalLoop=1;jettySize=auto;html=1;exitX=1;exitY=0.5;exitDx=0;exitDy=0;entryX=0;entryY=0.5;entryDx=0;entryDy=0;" edge="1" parent="WIyWlLk6GJQsqaUBKTNV-1" source="WIyWlLk6GJQsqaUBKTNV-3" target="3OBKh0TtiSCoRNwfFAYE-3">
          <mxGeometry relative="1" as="geometry" />
        </mxCell>
        <mxCell id="WIyWlLk6GJQsqaUBKTNV-3" value="登陆界面" style="rounded=1;whiteSpace=wrap;html=1;fontSize=12;glass=0;strokeWidth=1;shadow=0;" parent="WIyWlLk6GJQsqaUBKTNV-1" vertex="1">
          <mxGeometry x="160" y="80" width="120" height="40" as="geometry" />
        </mxCell>
        <mxCell id="3OBKh0TtiSCoRNwfFAYE-9" style="edgeStyle=orthogonalEdgeStyle;rounded=0;orthogonalLoop=1;jettySize=auto;html=1;exitX=0;exitY=0.5;exitDx=0;exitDy=0;entryX=1;entryY=0.5;entryDx=0;entryDy=0;" edge="1" parent="WIyWlLk6GJQsqaUBKTNV-1" source="WIyWlLk6GJQsqaUBKTNV-6" target="WIyWlLk6GJQsqaUBKTNV-7">
          <mxGeometry relative="1" as="geometry" />
        </mxCell>
        <mxCell id="3OBKh0TtiSCoRNwfFAYE-10" value="验证失败" style="edgeLabel;html=1;align=center;verticalAlign=middle;resizable=0;points=[];" vertex="1" connectable="0" parent="3OBKh0TtiSCoRNwfFAYE-9">
          <mxGeometry x="-0.1034" y="1" relative="1" as="geometry">
            <mxPoint as="offset" />
          </mxGeometry>
        </mxCell>
        <mxCell id="3OBKh0TtiSCoRNwfFAYE-13" style="edgeStyle=orthogonalEdgeStyle;rounded=0;orthogonalLoop=1;jettySize=auto;html=1;exitX=0.5;exitY=1;exitDx=0;exitDy=0;entryX=0.5;entryY=0;entryDx=0;entryDy=0;" edge="1" parent="WIyWlLk6GJQsqaUBKTNV-1" source="WIyWlLk6GJQsqaUBKTNV-6" target="3OBKh0TtiSCoRNwfFAYE-12">
          <mxGeometry relative="1" as="geometry" />
        </mxCell>
        <mxCell id="3OBKh0TtiSCoRNwfFAYE-14" value="验证成功" style="edgeLabel;html=1;align=center;verticalAlign=middle;resizable=0;points=[];" vertex="1" connectable="0" parent="3OBKh0TtiSCoRNwfFAYE-13">
          <mxGeometry x="-0.0966" y="1" relative="1" as="geometry">
            <mxPoint as="offset" />
          </mxGeometry>
        </mxCell>
        <mxCell id="WIyWlLk6GJQsqaUBKTNV-6" value="验证信息" style="rhombus;whiteSpace=wrap;html=1;shadow=0;fontFamily=Helvetica;fontSize=12;align=center;strokeWidth=1;spacing=6;spacingTop=-4;" parent="WIyWlLk6GJQsqaUBKTNV-1" vertex="1">
          <mxGeometry x="140" y="170" width="100" height="80" as="geometry" />
        </mxCell>
        <mxCell id="3OBKh0TtiSCoRNwfFAYE-5" style="edgeStyle=orthogonalEdgeStyle;rounded=0;orthogonalLoop=1;jettySize=auto;html=1;exitX=0.5;exitY=0;exitDx=0;exitDy=0;entryX=0;entryY=0.5;entryDx=0;entryDy=0;" edge="1" parent="WIyWlLk6GJQsqaUBKTNV-1" source="WIyWlLk6GJQsqaUBKTNV-7" target="WIyWlLk6GJQsqaUBKTNV-3">
          <mxGeometry relative="1" as="geometry" />
        </mxCell>
        <mxCell id="WIyWlLk6GJQsqaUBKTNV-7" value="登陆失败" style="rounded=1;whiteSpace=wrap;html=1;fontSize=12;glass=0;strokeWidth=1;shadow=0;" parent="WIyWlLk6GJQsqaUBKTNV-1" vertex="1">
          <mxGeometry x="-40" y="190" width="120" height="40" as="geometry" />
        </mxCell>
        <mxCell id="3OBKh0TtiSCoRNwfFAYE-7" style="edgeStyle=orthogonalEdgeStyle;rounded=0;orthogonalLoop=1;jettySize=auto;html=1;exitX=0.5;exitY=1;exitDx=0;exitDy=0;" edge="1" parent="WIyWlLk6GJQsqaUBKTNV-1" source="3OBKh0TtiSCoRNwfFAYE-1" target="WIyWlLk6GJQsqaUBKTNV-3">
          <mxGeometry relative="1" as="geometry" />
        </mxCell>
        <mxCell id="3OBKh0TtiSCoRNwfFAYE-1" value="cover页面" style="rounded=1;whiteSpace=wrap;html=1;fontSize=12;glass=0;strokeWidth=1;shadow=0;" vertex="1" parent="WIyWlLk6GJQsqaUBKTNV-1">
          <mxGeometry x="160" y="-10" width="120" height="40" as="geometry" />
        </mxCell>
        <mxCell id="3OBKh0TtiSCoRNwfFAYE-68" style="edgeStyle=orthogonalEdgeStyle;rounded=0;orthogonalLoop=1;jettySize=auto;html=1;exitX=0.5;exitY=1;exitDx=0;exitDy=0;entryX=0.5;entryY=0;entryDx=0;entryDy=0;" edge="1" parent="WIyWlLk6GJQsqaUBKTNV-1" source="3OBKh0TtiSCoRNwfFAYE-3" target="3OBKh0TtiSCoRNwfFAYE-66">
          <mxGeometry relative="1" as="geometry" />
        </mxCell>
        <mxCell id="3OBKh0TtiSCoRNwfFAYE-3" value="注册界面" style="rounded=1;whiteSpace=wrap;html=1;fontSize=12;glass=0;strokeWidth=1;shadow=0;" vertex="1" parent="WIyWlLk6GJQsqaUBKTNV-1">
          <mxGeometry x="400" y="80" width="120" height="40" as="geometry" />
        </mxCell>
        <mxCell id="3OBKh0TtiSCoRNwfFAYE-12" value="主页面" style="rounded=1;whiteSpace=wrap;html=1;" vertex="1" parent="WIyWlLk6GJQsqaUBKTNV-1">
          <mxGeometry x="130" y="290" width="120" height="40" as="geometry" />
        </mxCell>
        <mxCell id="3OBKh0TtiSCoRNwfFAYE-60" value="" style="group" vertex="1" connectable="0" parent="WIyWlLk6GJQsqaUBKTNV-1">
          <mxGeometry x="291.13" y="400" width="277.75" height="400" as="geometry" />
        </mxCell>
        <mxCell id="3OBKh0TtiSCoRNwfFAYE-32" style="edgeStyle=orthogonalEdgeStyle;rounded=0;orthogonalLoop=1;jettySize=auto;html=1;exitX=0.5;exitY=1;exitDx=0;exitDy=0;entryX=0.5;entryY=0;entryDx=0;entryDy=0;" edge="1" parent="3OBKh0TtiSCoRNwfFAYE-60" source="3OBKh0TtiSCoRNwfFAYE-16" target="3OBKh0TtiSCoRNwfFAYE-19">
          <mxGeometry relative="1" as="geometry" />
        </mxCell>
        <mxCell id="3OBKh0TtiSCoRNwfFAYE-16" value="项目管理" style="rounded=1;whiteSpace=wrap;html=1;" vertex="1" parent="3OBKh0TtiSCoRNwfFAYE-60">
          <mxGeometry x="78.88" width="120" height="40" as="geometry" />
        </mxCell>
        <mxCell id="3OBKh0TtiSCoRNwfFAYE-33" style="edgeStyle=orthogonalEdgeStyle;rounded=0;orthogonalLoop=1;jettySize=auto;html=1;exitX=0.5;exitY=1;exitDx=0;exitDy=0;entryX=0.5;entryY=0;entryDx=0;entryDy=0;" edge="1" parent="3OBKh0TtiSCoRNwfFAYE-60" source="3OBKh0TtiSCoRNwfFAYE-19" target="3OBKh0TtiSCoRNwfFAYE-24">
          <mxGeometry relative="1" as="geometry" />
        </mxCell>
        <mxCell id="3OBKh0TtiSCoRNwfFAYE-19" value="项目信息" style="rounded=1;whiteSpace=wrap;html=1;" vertex="1" parent="3OBKh0TtiSCoRNwfFAYE-60">
          <mxGeometry x="78.88" y="70" width="120" height="40" as="geometry" />
        </mxCell>
        <mxCell id="3OBKh0TtiSCoRNwfFAYE-22" value="可信度报告导出" style="rounded=1;whiteSpace=wrap;html=1;" vertex="1" parent="3OBKh0TtiSCoRNwfFAYE-60">
          <mxGeometry x="78.88" y="360" width="120" height="40" as="geometry" />
        </mxCell>
        <mxCell id="3OBKh0TtiSCoRNwfFAYE-34" style="edgeStyle=orthogonalEdgeStyle;rounded=0;orthogonalLoop=1;jettySize=auto;html=1;exitX=0.5;exitY=1;exitDx=0;exitDy=0;entryX=0.5;entryY=0;entryDx=0;entryDy=0;" edge="1" parent="3OBKh0TtiSCoRNwfFAYE-60" source="3OBKh0TtiSCoRNwfFAYE-28" target="3OBKh0TtiSCoRNwfFAYE-22">
          <mxGeometry relative="1" as="geometry" />
        </mxCell>
        <mxCell id="3OBKh0TtiSCoRNwfFAYE-28" value="可信度评分" style="rounded=1;whiteSpace=wrap;html=1;" vertex="1" parent="3OBKh0TtiSCoRNwfFAYE-60">
          <mxGeometry x="77.5" y="291" width="120" height="40" as="geometry" />
        </mxCell>
        <mxCell id="3OBKh0TtiSCoRNwfFAYE-17" value="权重计算" style="rounded=1;whiteSpace=wrap;html=1;" vertex="1" parent="3OBKh0TtiSCoRNwfFAYE-60">
          <mxGeometry y="210" width="120" height="40" as="geometry" />
        </mxCell>
        <mxCell id="3OBKh0TtiSCoRNwfFAYE-18" value="度量元打分" style="rounded=1;whiteSpace=wrap;html=1;" vertex="1" parent="3OBKh0TtiSCoRNwfFAYE-60">
          <mxGeometry x="157.75" y="210" width="120" height="40" as="geometry" />
        </mxCell>
        <mxCell id="3OBKh0TtiSCoRNwfFAYE-24" value="项目计算" style="rounded=1;whiteSpace=wrap;html=1;" vertex="1" parent="3OBKh0TtiSCoRNwfFAYE-60">
          <mxGeometry x="77.5" y="140" width="120" height="40" as="geometry" />
        </mxCell>
        <mxCell id="3OBKh0TtiSCoRNwfFAYE-25" value="" style="strokeWidth=1;html=1;shape=mxgraph.flowchart.annotation_2;align=left;labelPosition=right;pointerEvents=1;rotation=90;" vertex="1" parent="3OBKh0TtiSCoRNwfFAYE-60">
          <mxGeometry x="122.5" y="115" width="30" height="160" as="geometry" />
        </mxCell>
        <mxCell id="3OBKh0TtiSCoRNwfFAYE-29" value="" style="strokeWidth=1;html=1;shape=mxgraph.flowchart.annotation_2;align=left;labelPosition=right;pointerEvents=1;rotation=-90;" vertex="1" parent="3OBKh0TtiSCoRNwfFAYE-60">
          <mxGeometry x="118.19" y="188" width="41.38" height="165" as="geometry" />
        </mxCell>
        <mxCell id="3OBKh0TtiSCoRNwfFAYE-61" value="" style="group" vertex="1" connectable="0" parent="WIyWlLk6GJQsqaUBKTNV-1">
          <mxGeometry x="-280" y="400" width="540" height="140" as="geometry" />
        </mxCell>
        <mxCell id="3OBKh0TtiSCoRNwfFAYE-58" value="" style="group" vertex="1" connectable="0" parent="3OBKh0TtiSCoRNwfFAYE-61">
          <mxGeometry y="40" width="540" height="100" as="geometry" />
        </mxCell>
        <mxCell id="3OBKh0TtiSCoRNwfFAYE-38" value="权限管理" style="rounded=1;whiteSpace=wrap;html=1;" vertex="1" parent="3OBKh0TtiSCoRNwfFAYE-58">
          <mxGeometry x="420" y="60" width="120" height="40" as="geometry" />
        </mxCell>
        <mxCell id="3OBKh0TtiSCoRNwfFAYE-39" value="修改密码" style="rounded=1;whiteSpace=wrap;html=1;" vertex="1" parent="3OBKh0TtiSCoRNwfFAYE-58">
          <mxGeometry x="140" y="60" width="120" height="40" as="geometry" />
        </mxCell>
        <mxCell id="3OBKh0TtiSCoRNwfFAYE-40" value="登录日志" style="rounded=1;whiteSpace=wrap;html=1;" vertex="1" parent="3OBKh0TtiSCoRNwfFAYE-58">
          <mxGeometry x="280" y="60" width="120" height="40" as="geometry" />
        </mxCell>
        <mxCell id="3OBKh0TtiSCoRNwfFAYE-41" value="用户信息" style="rounded=1;whiteSpace=wrap;html=1;" vertex="1" parent="3OBKh0TtiSCoRNwfFAYE-58">
          <mxGeometry y="60" width="120" height="40" as="geometry" />
        </mxCell>
        <mxCell id="3OBKh0TtiSCoRNwfFAYE-51" value="" style="edgeStyle=none;orthogonalLoop=1;jettySize=auto;html=1;rounded=0;strokeColor=default;endArrow=none;endFill=0;" edge="1" parent="3OBKh0TtiSCoRNwfFAYE-58">
          <mxGeometry width="80" relative="1" as="geometry">
            <mxPoint x="60" y="30" as="sourcePoint" />
            <mxPoint x="480" y="30" as="targetPoint" />
            <Array as="points" />
          </mxGeometry>
        </mxCell>
        <mxCell id="3OBKh0TtiSCoRNwfFAYE-53" value="" style="edgeStyle=none;orthogonalLoop=1;jettySize=auto;html=1;rounded=0;strokeColor=default;endArrow=none;endFill=0;entryX=0.5;entryY=0;entryDx=0;entryDy=0;" edge="1" parent="3OBKh0TtiSCoRNwfFAYE-58" target="3OBKh0TtiSCoRNwfFAYE-41">
          <mxGeometry width="80" relative="1" as="geometry">
            <mxPoint x="60" y="30" as="sourcePoint" />
            <mxPoint x="490" y="40" as="targetPoint" />
            <Array as="points" />
          </mxGeometry>
        </mxCell>
        <mxCell id="3OBKh0TtiSCoRNwfFAYE-54" value="" style="edgeStyle=none;orthogonalLoop=1;jettySize=auto;html=1;rounded=0;strokeColor=default;endArrow=none;endFill=0;entryX=0.5;entryY=0;entryDx=0;entryDy=0;" edge="1" parent="3OBKh0TtiSCoRNwfFAYE-58">
          <mxGeometry width="80" relative="1" as="geometry">
            <mxPoint x="199.71000000000004" y="30" as="sourcePoint" />
            <mxPoint x="199.71000000000004" y="60" as="targetPoint" />
            <Array as="points" />
          </mxGeometry>
        </mxCell>
        <mxCell id="3OBKh0TtiSCoRNwfFAYE-55" value="" style="edgeStyle=none;orthogonalLoop=1;jettySize=auto;html=1;rounded=0;strokeColor=default;endArrow=none;endFill=0;entryX=0.5;entryY=0;entryDx=0;entryDy=0;" edge="1" parent="3OBKh0TtiSCoRNwfFAYE-58">
          <mxGeometry width="80" relative="1" as="geometry">
            <mxPoint x="339.71000000000004" y="30" as="sourcePoint" />
            <mxPoint x="339.71000000000004" y="60" as="targetPoint" />
            <Array as="points" />
          </mxGeometry>
        </mxCell>
        <mxCell id="3OBKh0TtiSCoRNwfFAYE-56" value="" style="edgeStyle=none;orthogonalLoop=1;jettySize=auto;html=1;rounded=0;strokeColor=default;endArrow=none;endFill=0;entryX=0.5;entryY=0;entryDx=0;entryDy=0;" edge="1" parent="3OBKh0TtiSCoRNwfFAYE-58">
          <mxGeometry width="80" relative="1" as="geometry">
            <mxPoint x="479.71000000000004" y="30" as="sourcePoint" />
            <mxPoint x="479.71000000000004" y="60" as="targetPoint" />
            <Array as="points" />
          </mxGeometry>
        </mxCell>
        <mxCell id="3OBKh0TtiSCoRNwfFAYE-57" value="" style="edgeStyle=none;orthogonalLoop=1;jettySize=auto;html=1;rounded=0;strokeColor=default;endArrow=none;endFill=0;entryX=0.5;entryY=0;entryDx=0;entryDy=0;" edge="1" parent="3OBKh0TtiSCoRNwfFAYE-58">
          <mxGeometry width="80" relative="1" as="geometry">
            <mxPoint x="270" as="sourcePoint" />
            <mxPoint x="270" y="30" as="targetPoint" />
            <Array as="points" />
          </mxGeometry>
        </mxCell>
        <mxCell id="3OBKh0TtiSCoRNwfFAYE-15" value="用户管理" style="rounded=1;whiteSpace=wrap;html=1;" vertex="1" parent="3OBKh0TtiSCoRNwfFAYE-61">
          <mxGeometry x="210" width="120" height="40" as="geometry" />
        </mxCell>
        <mxCell id="3OBKh0TtiSCoRNwfFAYE-67" style="edgeStyle=orthogonalEdgeStyle;rounded=0;orthogonalLoop=1;jettySize=auto;html=1;exitX=0;exitY=0.5;exitDx=0;exitDy=0;entryX=0.75;entryY=1;entryDx=0;entryDy=0;" edge="1" parent="WIyWlLk6GJQsqaUBKTNV-1" source="3OBKh0TtiSCoRNwfFAYE-66" target="WIyWlLk6GJQsqaUBKTNV-3">
          <mxGeometry relative="1" as="geometry" />
        </mxCell>
        <mxCell id="3OBKh0TtiSCoRNwfFAYE-71" value="注册成功" style="edgeLabel;html=1;align=center;verticalAlign=middle;resizable=0;points=[];" vertex="1" connectable="0" parent="3OBKh0TtiSCoRNwfFAYE-67">
          <mxGeometry x="-0.392" y="1" relative="1" as="geometry">
            <mxPoint as="offset" />
          </mxGeometry>
        </mxCell>
        <mxCell id="3OBKh0TtiSCoRNwfFAYE-72" style="edgeStyle=orthogonalEdgeStyle;rounded=0;orthogonalLoop=1;jettySize=auto;html=1;exitX=1;exitY=0.5;exitDx=0;exitDy=0;entryX=0.5;entryY=0;entryDx=0;entryDy=0;" edge="1" parent="WIyWlLk6GJQsqaUBKTNV-1" source="3OBKh0TtiSCoRNwfFAYE-66" target="3OBKh0TtiSCoRNwfFAYE-3">
          <mxGeometry relative="1" as="geometry">
            <Array as="points">
              <mxPoint x="540" y="210" />
              <mxPoint x="540" y="60" />
              <mxPoint x="460" y="60" />
            </Array>
          </mxGeometry>
        </mxCell>
        <mxCell id="3OBKh0TtiSCoRNwfFAYE-73" value="注册失败" style="edgeLabel;html=1;align=center;verticalAlign=middle;resizable=0;points=[];" vertex="1" connectable="0" parent="3OBKh0TtiSCoRNwfFAYE-72">
          <mxGeometry x="-0.264" y="1" relative="1" as="geometry">
            <mxPoint as="offset" />
          </mxGeometry>
        </mxCell>
        <mxCell id="3OBKh0TtiSCoRNwfFAYE-66" value="注册" style="rhombus;whiteSpace=wrap;html=1;shadow=0;fontFamily=Helvetica;fontSize=12;align=center;strokeWidth=1;spacing=6;spacingTop=-4;" vertex="1" parent="WIyWlLk6GJQsqaUBKTNV-1">
          <mxGeometry x="410" y="170" width="100" height="80" as="geometry" />
        </mxCell>
        <mxCell id="3OBKh0TtiSCoRNwfFAYE-70" value="" style="group" vertex="1" connectable="0" parent="WIyWlLk6GJQsqaUBKTNV-1">
          <mxGeometry x="-10" y="370" width="440" as="geometry" />
        </mxCell>
        <mxCell id="3OBKh0TtiSCoRNwfFAYE-62" value="" style="edgeStyle=none;orthogonalLoop=1;jettySize=auto;html=1;rounded=0;strokeColor=default;endArrow=none;endFill=0;" edge="1" parent="3OBKh0TtiSCoRNwfFAYE-70">
          <mxGeometry width="80" relative="1" as="geometry">
            <mxPoint as="sourcePoint" />
            <mxPoint x="440" as="targetPoint" />
            <Array as="points" />
          </mxGeometry>
        </mxCell>
        <mxCell id="3OBKh0TtiSCoRNwfFAYE-63" value="" style="edgeStyle=none;orthogonalLoop=1;jettySize=auto;html=1;rounded=0;strokeColor=default;endArrow=none;endFill=0;" edge="1" parent="3OBKh0TtiSCoRNwfFAYE-70" target="3OBKh0TtiSCoRNwfFAYE-15">
          <mxGeometry width="80" relative="1" as="geometry">
            <mxPoint as="sourcePoint" />
            <mxPoint x="79.71000000000004" y="140" as="targetPoint" />
            <Array as="points" />
          </mxGeometry>
        </mxCell>
        <mxCell id="3OBKh0TtiSCoRNwfFAYE-64" value="" style="edgeStyle=none;orthogonalLoop=1;jettySize=auto;html=1;rounded=0;strokeColor=default;endArrow=none;endFill=0;" edge="1" parent="3OBKh0TtiSCoRNwfFAYE-70" target="3OBKh0TtiSCoRNwfFAYE-16">
          <mxGeometry width="80" relative="1" as="geometry">
            <mxPoint x="440" as="sourcePoint" />
            <mxPoint x="89.71000000000004" y="150" as="targetPoint" />
            <Array as="points" />
          </mxGeometry>
        </mxCell>
        <mxCell id="3OBKh0TtiSCoRNwfFAYE-65" value="" style="edgeStyle=none;orthogonalLoop=1;jettySize=auto;html=1;rounded=0;strokeColor=default;endArrow=none;endFill=0;exitX=0.5;exitY=1;exitDx=0;exitDy=0;" edge="1" parent="3OBKh0TtiSCoRNwfFAYE-70" source="3OBKh0TtiSCoRNwfFAYE-12">
          <mxGeometry width="80" relative="1" as="geometry">
            <mxPoint x="99.71000000000004" y="130" as="sourcePoint" />
            <mxPoint x="200" as="targetPoint" />
            <Array as="points" />
          </mxGeometry>
        </mxCell>
      </root>
    </mxGraphModel>
  </diagram>
</mxfile>
